<svg class="plot-d6a7b5" fill="currentColor" font-family="system-ui, sans-serif" font-size="10" text-anchor="middle" width="500" height="300" viewBox="0 0 500 300" xmlns="http://www.w3.org/2000/svg" xmlns:xlink="http://www.w3.org/1999/xlink"><style>:where(.plot-d6a7b5) {
  --plot-background: white;
  display: block;
  height: auto;
  height: intrinsic;
  max-width: 100%;
}
:where(.plot-d6a7b5 text),
:where(.plot-d6a7b5 tspan) {
  white-space: pre;
}</style><g aria-label="y-axis label" text-anchor="start" transform="translate(-36.5,-16.5)"><text y="0.71em" transform="translate(40,20)">↑ Drowned dead</text></g><g aria-label="x-axis tick" aria-hidden="true" fill="none" stroke="currentColor" transform="translate(15.5,0)"><path transform="translate(47,270)" d="M0,0L0,6"/><path transform="translate(80,270)" d="M0,0L0,6"/><path transform="translate(113,270)" d="M0,0L0,6"/><path transform="translate(146,270)" d="M0,0L0,6"/><path transform="translate(179,270)" d="M0,0L0,6"/><path transform="translate(212,270)" d="M0,0L0,6"/><path transform="translate(245,270)" d="M0,0L0,6"/><path transform="translate(278,270)" d="M0,0L0,6"/><path transform="translate(311,270)" d="M0,0L0,6"/><path transform="translate(344,270)" d="M0,0L0,6"/><path transform="translate(377,270)" d="M0,0L0,6"/><path transform="translate(410,270)" d="M0,0L0,6"/><path transform="translate(443,270)" d="M0,0L0,6"/></g><g aria-label="x-axis tick label" transform="translate(15.5,9.5)"><text y="0.71em" transform="translate(47,270)">2013</text><text y="0.71em" transform="translate(80,270)">2014</text><text y="0.71em" transform="translate(113,270)">2015</text><text y="0.71em" transform="translate(146,270)">2016</text><text y="0.71em" transform="translate(179,270)">2017</text><text y="0.71em" transform="translate(212,270)">2018</text><text y="0.71em" transform="translate(245,270)">2019</text><text y="0.71em" transform="translate(278,270)">2020</text><text y="0.71em" transform="translate(311,270)">2021</text><text y="0.71em" transform="translate(344,270)">2022</text><text y="0.71em" transform="translate(377,270)">2023</text><text y="0.71em" transform="translate(410,270)">2024</text><text y="0.71em" transform="translate(443,270)">2025</text></g><g aria-label="bar" fill="#a5bfdd"><rect x="443" width="30" y="157.9310344827586" height="112.0689655172414"/><rect x="410" width="30" y="123.44827586206897" height="146.55172413793105"/><rect x="377" width="30" y="54.482758620689665" height="215.51724137931035"/><rect x="344" width="30" y="54.482758620689665" height="215.51724137931035"/><rect x="311" width="30" y="88.9655172413793" height="181.0344827586207"/><rect x="278" width="30" y="63.10344827586208" height="206.8965517241379"/><rect x="245" width="30" y="20" height="250"/><rect x="212" width="30" y="114.82758620689654" height="155.17241379310346"/><rect x="179" width="30" y="80.3448275862069" height="189.65517241379308"/><rect x="146" width="30" y="132.0689655172414" height="137.9310344827586"/><rect x="113" width="30" y="88.9655172413793" height="181.0344827586207"/><rect x="80" width="30" y="114.82758620689654" height="155.17241379310346"/><rect x="47" width="30" y="97.5862068965517" height="172.4137931034483"/></g><g aria-label="text" font-weight="bold" transform="translate(15.5,-5.5)"><text y="0.32em" transform="translate(443,157.9310344827586)">13</text><text y="0.32em" transform="translate(410,123.44827586206897)">17</text><text y="0.32em" transform="translate(377,54.482758620689665)">25</text><text y="0.32em" transform="translate(344,54.482758620689665)">25</text><text y="0.32em" transform="translate(311,88.9655172413793)">21</text><text y="0.32em" transform="translate(278,63.10344827586208)">24</text><text y="0.32em" transform="translate(245,20)">29</text><text y="0.32em" transform="translate(212,114.82758620689654)">18</text><text y="0.32em" transform="translate(179,80.3448275862069)">22</text><text y="0.32em" transform="translate(146,132.0689655172414)">16</text><text y="0.32em" transform="translate(113,88.9655172413793)">21</text><text y="0.32em" transform="translate(80,114.82758620689654)">18</text><text y="0.32em" transform="translate(47,97.5862068965517)">20</text></g><g aria-label="tip" fill="var(--plot-background)" stroke="currentColor" pointer-events="none" text-anchor="start" transform="translate(15.5,0.5)"/><text x="500" y="20" dy="-1em" text-anchor="end" font-family="initial">⚠️<title>1 warning. Please check the console.</title></text></svg>